<svg width="432" height="110" viewBox="0 0 432 110" fill="none" xmlns="http://www.w3.org/2000/svg">
<path d="M5.92 36.32C13.45 16.55 32.58 2.5 55 2.5C74.01 2.5 90.66 12.6 99.87 27.73" stroke="white" stroke-width="4" stroke-miterlimit="10" stroke-linecap="round" stroke-linejoin="round"/>
<path d="M3.57 65.58C2.87 62.16 2.5 58.62 2.5 55C2.5 48.42 3.71 42.13 5.92 36.32" stroke="#231F20" stroke-width="4" stroke-miterlimit="10" stroke-linecap="round" stroke-linejoin="round"/>
<path d="M14.74 88.7C11.53 84.87 8.86 80.57 6.84 75.93" stroke="#00A79D" stroke-width="4" stroke-miterlimit="10" stroke-linecap="round" stroke-linejoin="round"/>
<path d="M106.42 44.34C107.13 47.78 107.5 51.35 107.5 55C107.5 83.99 83.99 107.5 55 107.5C41.65 107.5 29.46 102.52 20.2 94.31" stroke="#231F20" stroke-width="4" stroke-miterlimit="10" stroke-linecap="round" stroke-linejoin="round"/>
<path d="M43.26 98.45C41.6 98 39.97 97.46 38.39 96.83" stroke="#00A79D" stroke-width="4" stroke-miterlimit="10" stroke-linecap="round" stroke-linejoin="round"/>
<path d="M12.21 68.97C10.77 64.57 10 59.87 10 55C10 30.15 30.15 10 55 10C79.85 10 100 30.15 100 55C100 79.85 79.85 100 55 100C50.94 100 47.01 99.46 43.26 98.45" stroke="#00A79D" stroke-width="4" stroke-miterlimit="10" stroke-linecap="round" stroke-linejoin="round"/>
<path d="M14.68 75.01C13.72 73.07 12.89 71.06 12.21 68.97" stroke="#00A79D" stroke-width="4" stroke-miterlimit="10" stroke-linecap="round" stroke-linejoin="round"/>
<path d="M92.42 57.52C91.12 77.05 74.87 92.5 55 92.5C44.53 92.5 35.07 88.21 28.26 81.29" stroke="white" stroke-width="4" stroke-miterlimit="10" stroke-linecap="round" stroke-linejoin="round"/>
<path d="M92.5 55C92.5 55.85 92.47 56.69 92.42 57.52" stroke="#808285" stroke-width="4" stroke-miterlimit="10" stroke-linecap="round" stroke-linejoin="round"/>
<path d="M18.26 62.56C17.76 60.12 17.5 57.59 17.5 55C17.5 34.29 34.29 17.5 55 17.5C65.36 17.5 74.73 21.7 81.52 28.48" stroke="#231F20" stroke-width="4" stroke-miterlimit="10" stroke-linecap="round" stroke-linejoin="round"/>
<path d="M155.732 36.674C155.391 33.796 154.008 31.561 151.584 29.97C149.16 28.379 146.186 27.583 142.664 27.583C140.088 27.583 137.834 28 135.902 28.833C133.989 29.667 132.493 30.813 131.414 32.271C130.353 33.729 129.823 35.386 129.823 37.243C129.823 38.796 130.192 40.131 130.931 41.248C131.688 42.347 132.654 43.265 133.828 44.004C135.003 44.724 136.234 45.32 137.522 45.794C138.809 46.248 139.993 46.618 141.073 46.902L146.982 48.493C148.497 48.89 150.183 49.439 152.039 50.14C153.914 50.841 155.703 51.797 157.408 53.01C159.131 54.203 160.552 55.737 161.669 57.612C162.787 59.487 163.345 61.788 163.345 64.515C163.345 67.659 162.522 70.5 160.874 73.038C159.245 75.576 156.859 77.593 153.715 79.089C150.59 80.585 146.792 81.333 142.323 81.333C138.156 81.333 134.548 80.661 131.499 79.316C128.469 77.972 126.082 76.097 124.34 73.691C122.616 71.286 121.641 68.493 121.414 65.311H128.686C128.876 67.508 129.614 69.326 130.902 70.765C132.209 72.186 133.857 73.246 135.845 73.947C137.853 74.629 140.012 74.97 142.323 74.97C145.012 74.97 147.427 74.534 149.567 73.663C151.707 72.773 153.402 71.542 154.652 69.97C155.902 68.379 156.527 66.523 156.527 64.402C156.527 62.47 155.988 60.898 154.908 59.686C153.828 58.474 152.408 57.489 150.647 56.731C148.885 55.974 146.982 55.311 144.936 54.743L137.777 52.697C133.232 51.39 129.633 49.525 126.982 47.1C124.33 44.676 123.005 41.504 123.005 37.583C123.005 34.326 123.885 31.485 125.647 29.061C127.427 26.618 129.813 24.724 132.806 23.379C135.817 22.015 139.179 21.333 142.891 21.333C146.641 21.333 149.974 22.006 152.891 23.35C155.808 24.676 158.118 26.494 159.823 28.805C161.546 31.116 162.455 33.739 162.55 36.674H155.732ZM178.338 96.674C177.202 96.674 176.189 96.58 175.299 96.39C174.408 96.22 173.793 96.049 173.452 95.879L175.157 89.97C176.785 90.386 178.225 90.538 179.475 90.424C180.725 90.311 181.833 89.752 182.799 88.748C183.783 87.763 184.683 86.163 185.497 83.947L186.747 80.538L170.611 36.674H177.884L189.929 71.447H190.384L202.429 36.674H209.702L191.179 86.674C190.346 88.928 189.314 90.794 188.083 92.271C186.852 93.767 185.422 94.875 183.793 95.595C182.183 96.314 180.365 96.674 178.338 96.674ZM225.256 54.061V80.311H218.551V36.674H225.029V43.493H225.597C226.62 41.277 228.173 39.496 230.256 38.152C232.339 36.788 235.029 36.106 238.324 36.106C241.279 36.106 243.864 36.712 246.08 37.924C248.296 39.118 250.019 40.936 251.25 43.379C252.481 45.803 253.097 48.871 253.097 52.583V80.311H246.392V53.038C246.392 49.61 245.502 46.939 243.722 45.027C241.942 43.095 239.498 42.129 236.392 42.129C234.252 42.129 232.339 42.593 230.654 43.521C228.987 44.449 227.671 45.803 226.705 47.583C225.739 49.364 225.256 51.523 225.256 54.061ZM283.076 81.22C278.985 81.22 275.462 80.254 272.507 78.322C269.553 76.39 267.28 73.729 265.689 70.339C264.098 66.949 263.303 63.076 263.303 58.72C263.303 54.288 264.117 50.377 265.746 46.987C267.394 43.578 269.685 40.917 272.621 39.004C275.576 37.072 279.023 36.106 282.962 36.106C286.03 36.106 288.795 36.674 291.257 37.811C293.72 38.947 295.737 40.538 297.309 42.583C298.881 44.629 299.856 47.015 300.235 49.743H293.53C293.019 47.754 291.882 45.993 290.121 44.458C288.379 42.905 286.03 42.129 283.076 42.129C280.462 42.129 278.17 42.811 276.201 44.174C274.25 45.519 272.725 47.422 271.627 49.885C270.547 52.328 270.007 55.197 270.007 58.493C270.007 61.864 270.538 64.799 271.598 67.299C272.678 69.799 274.193 71.741 276.144 73.123C278.113 74.506 280.424 75.197 283.076 75.197C284.818 75.197 286.399 74.894 287.82 74.288C289.24 73.682 290.443 72.811 291.428 71.674C292.413 70.538 293.113 69.174 293.53 67.583H300.235C299.856 70.159 298.918 72.479 297.422 74.544C295.945 76.589 293.985 78.218 291.541 79.43C289.117 80.623 286.295 81.22 283.076 81.22Z" fill="black"/>
<path d="M294.618 28.378V22.128H338.254V28.378H319.959V80.31H312.913V28.378H294.618ZM360.186 81.219C355.982 81.219 352.355 80.291 349.305 78.435C346.275 76.56 343.936 73.947 342.288 70.594C340.66 67.223 339.845 63.303 339.845 58.833C339.845 54.363 340.66 50.424 342.288 47.015C343.936 43.587 346.228 40.916 349.163 39.003C352.118 37.072 355.565 36.106 359.504 36.106C361.777 36.106 364.021 36.485 366.237 37.242C368.453 38 370.47 39.231 372.288 40.935C374.107 42.621 375.555 44.856 376.635 47.64C377.715 50.424 378.254 53.852 378.254 57.924V60.765H344.618V54.969H371.436C371.436 52.507 370.944 50.31 369.959 48.378C368.993 46.447 367.61 44.922 365.811 43.805C364.031 42.687 361.929 42.128 359.504 42.128C356.834 42.128 354.523 42.791 352.572 44.117C350.641 45.424 349.154 47.128 348.112 49.231C347.071 51.333 346.55 53.587 346.55 55.992V59.856C346.55 63.151 347.118 65.945 348.254 68.236C349.41 70.509 351.01 72.242 353.055 73.435C355.101 74.61 357.478 75.197 360.186 75.197C361.947 75.197 363.538 74.95 364.959 74.458C366.398 73.947 367.639 73.189 368.68 72.185C369.722 71.163 370.527 69.894 371.095 68.378L377.572 70.197C376.891 72.394 375.745 74.325 374.135 75.992C372.525 77.64 370.537 78.928 368.169 79.856C365.802 80.765 363.141 81.219 360.186 81.219ZM392.771 22.128L407.771 46.333H408.226L423.226 22.128H431.521L413.226 51.219L431.521 80.31H423.226L408.226 56.56H407.771L392.771 80.31H384.476L403.226 51.219L384.476 22.128H392.771Z" fill="#00A79D"/>
</svg>
